<svg width="28" height="28" viewBox="0 0 28 28" fill="none" xmlns="http://www.w3.org/2000/svg">
<g id="28x28 / Bag" clip-path="url(#clip0_2760_58)">
<path id="Vector" d="M22 24H6C5.73478 24 5.48043 23.8946 5.29289 23.7071C5.10536 23.5196 5 23.2652 5 23V5C5 4.73478 5.10536 4.48043 5.29289 4.29289C5.48043 4.10536 5.73478 4 6 4H22C22.2652 4 22.5196 4.10536 22.7071 4.29289C22.8946 4.48043 23 4.73478 23 5V23C23 23.2652 22.8946 23.5196 22.7071 23.7071C22.5196 23.8946 22.2652 24 22 24ZM21 22V6H7V22H21ZM11 8V10C11 10.7956 11.3161 11.5587 11.8787 12.1213C12.4413 12.6839 13.2044 13 14 13C14.7956 13 15.5587 12.6839 16.1213 12.1213C16.6839 11.5587 17 10.7956 17 10V8H19V10C19 11.3261 18.4732 12.5979 17.5355 13.5355C16.5979 14.4732 15.3261 15 14 15C12.6739 15 11.4021 14.4732 10.4645 13.5355C9.52678 12.5979 9 11.3261 9 10V8H11Z" fill="white"/>
</g>
<defs>
<clipPath id="clip0_2760_58">
<rect width="28" height="28" fill="white"/>
</clipPath>
</defs>
</svg>
