<svg width="168" height="20" viewBox="0 0 168 20" fill="none" xmlns="http://www.w3.org/2000/svg">
<g id="Group 10">
<g id="mentorama.">
<path d="M17.891 3.76063C19.6965 3.76063 21.0483 4.3874 21.9463 5.64094C22.8444 6.88512 23.2934 8.65786 23.2934 10.9591V18.761H19.0276V11.0574C19.0276 9.90672 18.8125 9.06479 18.3822 8.53157C17.9518 7.98899 17.3578 7.7177 16.6001 7.7177C16.1043 7.7177 15.6365 7.88141 15.1969 8.20883C14.7665 8.52689 14.4204 8.97592 14.1585 9.55592C13.9059 10.1359 13.7796 10.8001 13.7796 11.5485V18.761H9.51382V11.0574C9.51382 9.89737 9.29866 9.05076 8.86834 8.51754C8.44738 7.98431 7.85335 7.7177 7.08625 7.7177C6.59045 7.7177 6.12739 7.88141 5.69707 8.20883C5.26675 8.52689 4.92062 8.9806 4.65869 9.56995C4.39675 10.1499 4.26578 10.8095 4.26578 11.5485V18.761H0V4.22369H4.04127L4.0974 5.97771C4.48094 5.32288 5.05159 4.78965 5.80933 4.37804C6.57642 3.96643 7.43238 3.76063 8.37722 3.76063C9.50914 3.76063 10.4587 4.00853 11.2257 4.50433C12.0022 5.00013 12.6009 5.72513 13.0219 6.67932C13.6673 5.669 14.3923 4.92997 15.1969 4.46223C16.0014 3.9945 16.8994 3.76063 17.891 3.76063Z" fill="#1F1F1F"/>
<path d="M40.8898 11.3801C40.8898 11.7262 40.8617 12.1238 40.8056 12.5728H30.085C30.2534 13.527 30.6276 14.2567 31.2076 14.7619C31.7876 15.2577 32.5032 15.5056 33.3545 15.5056C34.7016 15.5056 35.5669 15.0098 35.9505 14.0182H40.5811C40.3566 14.9162 39.9216 15.7628 39.2761 16.558C38.6306 17.3531 37.8074 17.9986 36.8064 18.4944C35.8055 18.9809 34.6829 19.2241 33.4387 19.2241C31.9606 19.2241 30.6369 18.878 29.4676 18.1857C28.3076 17.4935 27.4002 16.558 26.7453 15.3793C26.0905 14.1912 25.7631 12.8956 25.7631 11.4924C25.7631 10.0798 26.0858 8.78415 26.7313 7.60544C27.3861 6.42674 28.2982 5.49126 29.4676 4.79901C30.6369 4.10675 31.9606 3.76063 33.4387 3.76063C34.9168 3.76063 36.2171 4.10208 37.3396 4.78497C38.4716 5.46787 39.3462 6.394 39.9637 7.56335C40.5811 8.72334 40.8898 9.99559 40.8898 11.3801ZM36.4697 9.65414C36.4229 9.21447 36.2592 8.81689 35.9785 8.46141C35.6979 8.09657 35.333 7.81593 34.884 7.61948C34.4443 7.41367 33.9672 7.31077 33.4527 7.31077C32.7324 7.31077 32.0823 7.50254 31.5023 7.88609C30.9223 8.26963 30.506 8.85899 30.2534 9.65414H36.4697Z" fill="#1F1F1F"/>
<path d="M47.3727 4.22369V5.97771C47.7936 5.31352 48.411 4.7803 49.2249 4.37804C50.0481 3.96643 50.9509 3.76063 51.9331 3.76063C53.8696 3.76063 55.3196 4.3874 56.2831 5.64094C57.256 6.88512 57.7424 8.65786 57.7424 10.9591V18.761H53.4205V11.0574C53.4205 9.89737 53.182 9.05076 52.7049 8.51754C52.2278 7.98431 51.5636 7.7177 50.7123 7.7177C50.1417 7.7177 49.6178 7.8627 49.1407 8.1527C48.6636 8.43334 48.2801 8.86366 47.9901 9.44366C47.7094 10.0143 47.5691 10.7159 47.5691 11.5485V18.761H43.2472V4.22369H47.3727Z" fill="#1F1F1F"/>
<path d="M67.144 18.761C65.7221 18.761 64.5247 18.3775 63.5518 17.6104C62.5882 16.8433 62.1065 15.3372 62.1065 13.092V7.90012H59.3141V4.22369H62.1065V0.0280644L66.4284 0V4.22369H70.3574V7.90012H66.4284V13.2885C66.4284 13.9527 66.578 14.4391 66.8774 14.7478C67.1768 15.0472 67.5743 15.1969 68.0701 15.1969H70.3574V18.761H67.144Z" fill="#1F1F1F"/>
<path d="M79.3099 19.2241C77.8319 19.2241 76.5035 18.8826 75.3248 18.1997C74.1554 17.5075 73.2387 16.572 72.5745 15.3933C71.9196 14.2052 71.5922 12.9049 71.5922 11.4924C71.5922 10.0798 71.9196 8.78415 72.5745 7.60544C73.2293 6.42674 74.1461 5.49126 75.3248 4.79901C76.5035 4.10675 77.8365 3.76063 79.3239 3.76063C80.8207 3.76063 82.1584 4.10675 83.3372 4.79901C84.5252 5.49126 85.4513 6.42674 86.1155 7.60544C86.7797 8.78415 87.1118 10.0798 87.1118 11.4924C87.1118 12.9143 86.7797 14.2146 86.1155 15.3933C85.4513 16.572 84.5252 17.5075 83.3372 18.1997C82.1584 18.8826 80.816 19.2241 79.3099 19.2241ZM79.352 15.239C80.0256 15.239 80.6243 15.0799 81.1481 14.7619C81.6814 14.4438 82.093 14.0041 82.383 13.4428C82.6823 12.8722 82.832 12.222 82.832 11.4924C82.832 10.7627 82.6823 10.1172 82.383 9.55592C82.093 8.98528 81.6814 8.54092 81.1481 8.22286C80.6243 7.9048 80.0256 7.74577 79.352 7.74577C78.6785 7.74577 78.0751 7.9048 77.5419 8.22286C77.018 8.54092 76.6064 8.98528 76.307 9.55592C76.017 10.1172 75.872 10.7627 75.872 11.4924C75.872 12.222 76.017 12.8722 76.307 13.4428C76.6064 14.0041 77.018 14.4438 77.5419 14.7619C78.0751 15.0799 78.6785 15.239 79.352 15.239Z" fill="#1F1F1F"/>
<path d="M93.749 4.22369V6.27239C94.4974 4.90659 95.6434 4.22369 97.1869 4.22369H98.8708V7.90012H97.4255C96.331 7.90012 95.475 8.26028 94.8576 8.9806C94.2495 9.70092 93.9455 10.7299 93.9455 12.0677V18.761H89.6095V4.22369H93.749Z" fill="#1F1F1F"/>
<path d="M106.35 19.2381C105.078 19.2381 103.932 18.892 102.912 18.1997C101.892 17.5075 101.093 16.572 100.513 15.3933C99.9419 14.2052 99.6566 12.9049 99.6566 11.4924C99.6566 10.0891 99.9466 8.79818 100.527 7.61948C101.107 6.44077 101.902 5.50529 102.912 4.81304C103.932 4.11143 105.068 3.76063 106.322 3.76063C107.398 3.76063 108.347 3.96643 109.17 4.37804C110.003 4.7803 110.639 5.35094 111.079 6.08997V4.22369H115.176V18.761H111.065V16.9228C110.625 17.6618 109.994 18.2325 109.17 18.6347C108.347 19.037 107.407 19.2381 106.35 19.2381ZM107.402 15.253C108.048 15.253 108.637 15.0893 109.17 14.7619C109.704 14.4344 110.125 13.9854 110.433 13.4148C110.742 12.8348 110.896 12.194 110.896 11.4924C110.896 10.8095 110.742 10.1827 110.433 9.61205C110.125 9.03205 109.704 8.57366 109.17 8.23689C108.637 7.90012 108.053 7.73173 107.416 7.73173C106.771 7.73173 106.182 7.88609 105.648 8.1948C105.124 8.49415 104.708 8.92915 104.399 9.49979C104.091 10.0704 103.936 10.7346 103.936 11.4924C103.936 12.2875 104.091 12.9704 104.399 13.5411C104.718 14.1023 105.138 14.528 105.662 14.818C106.196 15.108 106.776 15.253 107.402 15.253Z" fill="#1F1F1F"/>
<path d="M136.407 3.76063C138.212 3.76063 139.564 4.3874 140.462 5.64094C141.36 6.88512 141.809 8.65786 141.809 10.9591V18.761H137.543V11.0574C137.543 9.90672 137.328 9.06479 136.898 8.53157C136.468 7.98899 135.874 7.7177 135.116 7.7177C134.62 7.7177 134.152 7.88141 133.713 8.20883C133.282 8.52689 132.936 8.97592 132.674 9.55592C132.422 10.1359 132.295 10.8001 132.295 11.5485V18.761H128.03V11.0574C128.03 9.89737 127.815 9.05076 127.384 8.51754C126.963 7.98431 126.369 7.7177 125.602 7.7177C125.106 7.7177 124.643 7.88141 124.213 8.20883C123.783 8.52689 123.436 8.9806 123.175 9.56995C122.913 10.1499 122.782 10.8095 122.782 11.5485V18.761H118.516V4.22369H122.557L122.613 5.97771C122.997 5.32288 123.567 4.78965 124.325 4.37804C125.092 3.96643 125.948 3.76063 126.893 3.76063C128.025 3.76063 128.974 4.00853 129.742 4.50433C130.518 5.00013 131.117 5.72513 131.538 6.67932C132.183 5.669 132.908 4.92997 133.713 4.46223C134.517 3.9945 135.415 3.76063 136.407 3.76063Z" fill="#1F1F1F"/>
<path d="M150.972 19.2381C149.7 19.2381 148.554 18.892 147.534 18.1997C146.515 17.5075 145.715 16.572 145.135 15.3933C144.564 14.2052 144.279 12.9049 144.279 11.4924C144.279 10.0891 144.569 8.79818 145.149 7.61948C145.729 6.44077 146.524 5.50529 147.534 4.81304C148.554 4.11143 149.691 3.76063 150.944 3.76063C152.02 3.76063 152.97 3.96643 153.793 4.37804C154.625 4.7803 155.261 5.35094 155.701 6.08997V4.22369H159.799V18.761H155.687V16.9228C155.247 17.6618 154.616 18.2325 153.793 18.6347C152.97 19.037 152.029 19.2381 150.972 19.2381ZM152.025 15.253C152.67 15.253 153.26 15.0893 153.793 14.7619C154.326 14.4344 154.747 13.9854 155.056 13.4148C155.364 12.8348 155.519 12.194 155.519 11.4924C155.519 10.8095 155.364 10.1827 155.056 9.61205C154.747 9.03205 154.326 8.57366 153.793 8.23689C153.26 7.90012 152.675 7.73173 152.039 7.73173C151.393 7.73173 150.804 7.88609 150.271 8.1948C149.747 8.49415 149.331 8.92915 149.022 9.49979C148.713 10.0704 148.559 10.7346 148.559 11.4924C148.559 12.2875 148.713 12.9704 149.022 13.5411C149.34 14.1023 149.761 14.528 150.285 14.818C150.818 15.108 151.398 15.253 152.025 15.253Z" fill="#1F1F1F"/>
</g>
<path id="mentorama._2" d="M165.397 19.1681C164.93 19.1681 164.518 19.0698 164.163 18.8734C163.807 18.6769 163.531 18.4103 163.335 18.0735C163.138 17.7368 163.04 17.3626 163.04 16.951C163.04 16.5487 163.138 16.1792 163.335 15.8424C163.531 15.5057 163.807 15.239 164.163 15.0426C164.527 14.8368 164.944 14.7339 165.411 14.7339C165.879 14.7339 166.296 14.8368 166.66 15.0426C167.025 15.239 167.306 15.5057 167.502 15.8424C167.699 16.1792 167.797 16.5487 167.797 16.951C167.797 17.3626 167.694 17.7368 167.488 18.0735C167.292 18.4103 167.011 18.6769 166.646 18.8734C166.291 19.0698 165.875 19.1681 165.397 19.1681Z" fill="white"/>
</g>
</svg>
