<svg width="28" height="28" viewBox="0 0 28 28" fill="none" xmlns="http://www.w3.org/2000/svg">
<g id="28x28 / Search" clip-path="url(#clip0_2760_95)">
<path id="Vector" d="M19.2049 17.952L23 21.7462L21.7462 23L17.952 19.2049C16.5402 20.3366 14.7842 20.9522 12.9748 20.9496C8.57271 20.9496 5 17.3769 5 12.9748C5 8.57271 8.57271 5 12.9748 5C17.3769 5 20.9496 8.57271 20.9496 12.9748C20.9522 14.7842 20.3366 16.5402 19.2049 17.952ZM17.4274 17.2945C18.5519 16.138 19.18 14.5879 19.1774 12.9748C19.1774 9.54741 16.4013 6.77218 12.9748 6.77218C9.54741 6.77218 6.77218 9.54741 6.77218 12.9748C6.77218 16.4013 9.54741 19.1774 12.9748 19.1774C14.5879 19.18 16.138 18.5519 17.2945 17.4274L17.4274 17.2945V17.2945Z" fill="#A0996C"/>
</g>
<defs>
<clipPath id="clip0_2760_95">
<rect width="28" height="28" fill="white"/>
</clipPath>
</defs>
</svg>
